<svg width="48" height="48" viewBox="0 0 48 48" fill="none" xmlns="http://www.w3.org/2000/svg">
  <rect x="6" y="6" width="36" height="36" rx="4" fill="#3B82F6" stroke="#FFFFFF" stroke-width="2"/>
  <rect x="10" y="10" width="4" height="4" fill="#FFFFFF"/>
  <rect x="18" y="10" width="4" height="4" fill="#FFFFFF"/>
  <rect x="26" y="10" width="4" height="4" fill="#FFFFFF"/>
  <rect x="34" y="10" width="4" height="4" fill="#FFFFFF"/>
  <rect x="10" y="16" width="4" height="4" fill="#FFFFFF"/>
  <rect x="18" y="16" width="4" height="4" fill="#FFFFFF"/>
  <rect x="26" y="16" width="4" height="4" fill="#FFFFFF"/>
  <rect x="34" y="16" width="4" height="4" fill="#FFFFFF"/>
  <rect x="10" y="22" width="4" height="4" fill="#FFFFFF"/>
  <rect x="18" y="22" width="4" height="4" fill="#FFFFFF"/>
  <rect x="26" y="22" width="4" height="4" fill="#FFFFFF"/>
  <rect x="34" y="22" width="4" height="4" fill="#FFFFFF"/>
  <rect x="10" y="28" width="4" height="4" fill="#FFFFFF"/>
  <rect x="18" y="28" width="4" height="4" fill="#FFFFFF"/>
  <rect x="26" y="28" width="4" height="4" fill="#FFFFFF"/>
  <rect x="34" y="28" width="4" height="4" fill="#FFFFFF"/>
  <rect x="18" y="34" width="12" height="6" fill="#FFFFFF"/>
</svg>