<svg xmlns="http://www.w3.org/2000/svg" width="24" height="24" viewBox="0 0 24 24"><path fill="#fff" d="M6.429 2.413a.75.75 0 0 0-1.13-.986l-1.292 1.48a4.75 4.75 0 0 0-1.17 3.024L2.78 8.65a.75.75 0 0 0 1.5.031l.056-2.718a3.25 3.25 0 0 1 .801-2.069z"/><path fill="#fff" fill-rule="evenodd" d="M6.237 7.7a4.214 4.214 0 0 1 4.206-3.95H11V3a1 1 0 1 1 2 0v.75h.557a4.214 4.214 0 0 1 4.206 3.95l.221 3.534a7.4 7.4 0 0 0 1.308 3.754a1.617 1.617 0 0 1-1.135 2.529l-3.407.408V19a2.75 2.75 0 1 1-5.5 0v-1.075l-3.407-.409a1.617 1.617 0 0 1-1.135-2.528a7.4 7.4 0 0 0 1.308-3.754zM10.75 19a1.25 1.25 0 0 0 2.5 0v-.75h-2.5z" clip-rule="evenodd"/><path fill="#fff" d="M17.643 1.355a.75.75 0 0 0-.072 1.058l1.292 1.48a3.25 3.25 0 0 1 .8 2.07l.057 2.717a.75.75 0 1 0 1.5-.031l-.057-2.718a4.75 4.75 0 0 0-1.17-3.024l-1.292-1.48a.75.75 0 0 0-1.058-.072"/></svg>