<svg xmlns="http://www.w3.org/2000/svg" width="24" height="24" viewBox="0 0 24 24"><path fill="none" stroke="currentColor" stroke-linecap="round" stroke-linejoin="round" stroke-width="1.5" d="M12 17V9c0-2.357 0-3.536-.732-4.268S9.357 4 7 4s-3.536 0-4.268.732S2 6.643 2 9v8c0 2.357 0 3.535.732 4.268S4.643 22 7 22s3.536 0 4.268-.732C12 20.535 12 19.357 12 17m3 5c2.357 0 3.535 0 4.268-.732C20 20.535 20 19.357 20 17s0-3.536-.732-4.268C18.535 12 17.357 12 15 12m7-6.5L19.5 8L17 5.5M19.5 7c0-2.357 0-3.536-.732-4.268C18.035 2 16.857 2 14.5 2"/></svg>