<svg xmlns="http://www.w3.org/2000/svg" width="24" height="24" viewBox="0 0 24 24"><path fill="#fff" fill-rule="evenodd" d="M4.063 1.25h3.751a.75.75 0 0 1 .702.486l1.456 3.87a.75.75 0 0 1 .035.401l-.73 3.912c.897 2.108 2.378 3.525 4.833 4.796l3.865-.75a.75.75 0 0 1 .41.036l3.882 1.48a.75.75 0 0 1 .483.7v3.584c0 1.626-1.432 2.945-3.108 2.58c-3.053-.664-8.71-2.353-12.672-6.315c-3.796-3.795-5.068-9.037-5.495-11.87c-.245-1.618 1.052-2.91 2.588-2.91" clip-rule="evenodd" stroke-width="0.4" stroke="#fff"/></svg>