<svg xmlns="http://www.w3.org/2000/svg" width="24" height="24" viewBox="0 0 24 24"><g fill="none"><path d="m12.593 23.258l-.011.002l-.071.035l-.02.004l-.014-.004l-.071-.035q-.016-.005-.024.005l-.004.01l-.017.428l.005.02l.01.013l.104.074l.015.004l.012-.004l.104-.074l.012-.016l.004-.017l-.017-.427q-.004-.016-.017-.018m.265-.113l-.013.002l-.185.093l-.01.01l-.003.011l.018.43l.005.012l.008.007l.201.093q.019.005.029-.008l.004-.014l-.034-.614q-.005-.018-.02-.022m-.715.002a.02.02 0 0 0-.027.006l-.006.014l-.034.614q.001.018.017.024l.015-.002l.201-.093l.01-.008l.004-.011l.017-.43l-.003-.012l-.01-.01z"/><path fill="#fff" d="M11.117 9.473a1.25 1.25 0 0 1 1.665-.09l.101.09l2.824 2.82a1 1 0 0 1-1.32 1.498l-.094-.083L13 12.416V21a1 1 0 0 1-1.993.117L11 21v-8.584l-1.293 1.292a1 1 0 0 1-1.497-1.321l.083-.095zM11.5 2c2.784 0 5.16 1.75 6.086 4.212a6 6 0 0 1-1.36 11.784L16 18h-1v-2a3 3 0 0 0 2.255-4.979l-.135-.144l-2.824-2.819a3.25 3.25 0 0 0-4.448-.135l-.144.135l-2.824 2.82a3 3 0 0 0 1.91 5.115L9 16v2H7a5 5 0 0 1-2-9.584A6.5 6.5 0 0 1 11.5 2"/></g></svg>